<svg xmlns="http://www.w3.org/2000/svg" xmlns:xlink="http://www.w3.org/1999/xlink" version="1.1" x="0px" y="0px" viewBox="0 0 64 80" style="enable-background:new 0 0 64 64;" xml:space="preserve"><path d="M3.234,30.973c1.492-0.359,3.836-0.65,6.532-0.001c2.038,0.492,3.974,1.46,5.598,2.8C15.543,33.919,15.768,34,16,34h1  c0.044,0,0.089-0.003,0.133-0.009c4.583-0.614,9.223-0.93,13.867-0.971v25.737c0,0.526-0.213,1.042-0.586,1.414  c-0.779,0.779-2.049,0.779-2.828,0C27.213,59.8,27,59.284,27,58.758V56h-2v2.758c0,1.054,0.427,2.084,1.172,2.828  c0.78,0.779,1.804,1.169,2.828,1.169c1.024,0,2.048-0.39,2.828-1.169C32.573,60.842,33,59.812,33,58.758V33.02  c4.644,0.041,9.285,0.357,13.867,0.971C46.911,33.997,46.956,34,47,34h1c0.232,0,0.457-0.081,0.636-0.229  c1.624-1.34,3.56-2.308,5.598-2.8c2.695-0.648,5.039-0.358,6.532,0.001c0.297,0.07,0.612,0.002,0.853-0.188  C61.859,30.596,62,30.307,62,30C62,17.317,51.682,7,39,7h-6V2h-2v5h-6C12.318,7,2,17.317,2,30c0,0.307,0.141,0.596,0.381,0.785  C2.622,30.976,2.935,31.044,3.234,30.973z M16.978,31.995c-0.036-3.236,0.493-7.771,2.914-12.543  C22.596,14.12,26.455,10.847,29.304,9h4.346c3.41,2.642,6.269,5.84,8.494,9.518c2.463,4.073,4.074,8.705,4.714,13.458  C36.983,30.677,26.852,30.682,16.978,31.995z M59.965,28.777c-2.059-0.32-4.178-0.237-6.199,0.251  c-1.769,0.426-3.462,1.178-4.99,2.179c-0.721-4.849-2.402-9.563-4.92-13.725C41.93,14.299,39.551,11.46,36.777,9H39  C50.169,9,59.329,17.765,59.965,28.777z M25,9h0.887c-2.627,2.1-5.565,5.182-7.779,9.548c-2.36,4.652-3.05,9.105-3.129,12.487  c-1.463-0.919-3.073-1.604-4.745-2.007c-2.021-0.488-4.141-0.571-6.199-0.251C4.671,17.765,13.831,9,25,9z"/><path d="M35,26v-2h2c0.552,0,1-0.447,1-1v-4c0-0.553-0.448-1-1-1h-2v-2c0-0.553-0.448-1-1-1h-4c-0.552,0-1,0.447-1,1v2h-2  c-0.552,0-1,0.447-1,1v4c0,0.553,0.448,1,1,1h2v2c0,0.553,0.448,1,1,1h4C34.552,27,35,26.553,35,26z M33,23v2h-2v-2  c0-0.553-0.448-1-1-1h-2v-2h2c0.552,0,1-0.447,1-1v-2h2v2c0,0.553,0.448,1,1,1h2v2h-2C33.448,22,33,22.447,33,23z"/><path d="M42.507,39.13C42.194,39.308,42,39.64,42,40v4.012c-1.673,1.258-2.904,2.99-3.529,4.988H38c-1.654,0-3,1.346-3,3  s1.346,3,3,3h0.465c1.296,4.16,5.109,7,9.535,7s8.239-2.84,9.535-7H58c1.654,0,3-1.346,3-3s-1.346-3-3-3h-0.471  c-0.625-1.998-1.855-3.731-3.529-4.988V40c0-0.36-0.194-0.692-0.507-0.87c-0.313-0.179-0.698-0.172-1.007,0.013l-3.345,2.007  c0.26-0.839,0.784-1.671,1.561-2.438c1.631-1.607,3.728-1.695,4.29-1.712l0.016-2c-1.048-0.013-3.593,0.2-5.71,2.288  c-0.533,0.526-0.968,1.084-1.323,1.66c-0.355-0.576-0.79-1.134-1.323-1.66c-2.117-2.089-4.709-2.286-5.71-2.288l0.016,2  c0.562-0.018,2.661,0.104,4.29,1.712c0.765,0.755,1.284,1.573,1.548,2.399l-3.28-1.968C43.206,38.958,42.82,38.951,42.507,39.13z   M55.789,50.222C55.892,50.677,56.297,51,56.764,51H58c0.551,0,1,0.448,1,1s-0.449,1-1,1h-1.23c-0.467,0-0.872,0.323-0.975,0.778  C54.962,57.441,51.757,60,48,60s-6.962-2.559-7.794-6.222C40.102,53.323,39.697,53,39.23,53H38c-0.551,0-1-0.448-1-1s0.449-1,1-1  h1.236c0.467,0,0.872-0.323,0.975-0.778c0.318-1.396,0.991-2.66,1.946-3.684c0.005,0.008,0.016,0.012,0.021,0.02  c0.085,0.125,0.193,0.235,0.329,0.312c0.313,0.178,0.698,0.173,1.007-0.013L48,44.166l4.485,2.691  c0.078,0.047,0.162,0.082,0.247,0.106c0.025,0.007,0.052,0.006,0.078,0.011c0.061,0.012,0.122,0.024,0.184,0.025  C52.996,46.999,52.998,47,53,47c0.055,0,0.109-0.012,0.164-0.021c0.029-0.005,0.058-0.004,0.086-0.011  c0.084-0.022,0.166-0.054,0.243-0.098c0.136-0.077,0.244-0.187,0.329-0.312c0.005-0.008,0.016-0.012,0.021-0.02  C54.797,47.562,55.471,48.825,55.789,50.222z M52,41.767v2.467L49.944,43L52,41.767z M44,41.767L46.056,43L44,44.233V41.767z"/><rect x="43" y="51" width="2" height="2"/><rect x="51" y="51" width="2" height="2"/><path d="M48,56c-0.912,0-1.727-0.543-2.077-1.385l-1.847,0.77C44.738,56.974,46.278,58,48,58s3.262-1.026,3.923-2.615l-1.847-0.77  C49.727,55.457,48.912,56,48,56z"/><path d="M27.999,44.945c-0.037-0.676-0.483-6.64-4.712-7.903c-3.435-1.029-6.625,1.898-6.993,2.251l-0.289,0.288l-0.301-0.304  c-0.352-0.337-3.539-3.264-6.977-2.235c-4.229,1.264-4.675,7.228-4.712,7.903c-0.308,5.648,3.259,10.864,9.542,13.951l1.996,0.998  C15.693,59.965,15.847,60,16,60s0.307-0.035,0.447-0.105l1.994-0.997C24.733,55.807,28.306,50.591,27.999,44.945z M6.011,45.055  c0.012-0.212,0.318-5.209,3.288-6.097c0.312-0.093,0.626-0.134,0.937-0.134c2.073,0,3.991,1.808,4.065,1.878l0.987,1  c0.187,0.19,0.442,0.297,0.708,0.298c0.001,0,0.002,0,0.003,0c0.265,0,0.52-0.105,0.707-0.293l0.984-0.984  c0.106-0.102,2.626-2.479,5.023-1.765c2.969,0.888,3.276,5.885,3.288,6.097c0.017,0.317,0.018,0.632,0.006,0.945H19  c-0.379,0-0.725,0.214-0.895,0.553L17,48.764l-3.105-6.211c-0.339-0.678-1.45-0.678-1.789,0L10.382,46H6.005  C5.993,45.686,5.994,45.371,6.011,45.055z M17.553,57.105L16,57.882l-1.553-0.776c-0.002-0.001-0.004-0.002-0.006-0.003  C10.049,54.945,7.167,51.667,6.287,48H11c0.379,0,0.725-0.214,0.895-0.553L13,45.236l3.105,6.211C16.275,51.786,16.621,52,17,52  s0.725-0.214,0.895-0.553L19.618,48h6.106C24.842,51.665,21.955,54.943,17.553,57.105z"/><text x="0" y="79" fill="#000000" font-size="5px" font-weight="bold" font-family="'Helvetica Neue', Helvetica, Arial-Unicode, Arial, Sans-serif">Created by Becris</text><text x="0" y="84" fill="#000000" font-size="5px" font-weight="bold" font-family="'Helvetica Neue', Helvetica, Arial-Unicode, Arial, Sans-serif">from the Noun Project</text></svg>