<svg xmlns="http://www.w3.org/2000/svg" xmlns:xlink="http://www.w3.org/1999/xlink" version="1.1" x="0px" y="0px" viewBox="0 0 100 125" style="enable-background:new 0 0 100 100;" xml:space="preserve"><path d="M48,47c0,1.105-0.895,2-2,2h-4v14.893c0,0.996-0.681,1.92-1.664,2.08C39.083,66.176,38,65.215,38,64v-6h-4v6  c0,1.215-1.083,2.176-2.336,1.973C30.681,65.813,30,64.889,30,63.893V49h-4c-1.105,0-2-0.895-2-2s0.895-2,2-2h6.686  C31.068,43.925,30,42.088,30,40c0-3.314,2.686-6,6-6s6,2.686,6,6c0,2.088-1.068,3.925-2.686,5H46C47.105,45,48,45.895,48,47z M74,45  h-6.686C68.932,43.925,70,42.088,70,40c0-3.314-2.686-6-6-6s-6,2.686-6,6c0,2.088,1.068,3.925,2.686,5H54c-1.105,0-2,0.895-2,2  s0.895,2,2,2h4l-3.561,10.684C54.223,60.331,54.705,61,55.387,61L58,61v2.893c0,0.996,0.681,1.92,1.664,2.08  C60.917,66.176,62,65.215,62,64v-3h4v3c0,1.215,1.083,2.176,2.336,1.973c0.983-0.16,1.664-1.083,1.664-2.08V61h2.613  c0.683,0,1.165-0.669,0.949-1.316L70,49h4c1.105,0,2-0.895,2-2S75.105,45,74,45z"/><text x="0" y="115" fill="#000000" font-size="5px" font-weight="bold" font-family="'Helvetica Neue', Helvetica, Arial-Unicode, Arial, Sans-serif">Created by Setyo Ari Wibowo</text><text x="0" y="120" fill="#000000" font-size="5px" font-weight="bold" font-family="'Helvetica Neue', Helvetica, Arial-Unicode, Arial, Sans-serif">from the Noun Project</text></svg>