<svg xmlns="http://www.w3.org/2000/svg" xmlns:xlink="http://www.w3.org/1999/xlink" version="1.1" x="0px" y="0px" viewBox="0 0 91 113.75" style="enable-background:new 0 0 91 91;" xml:space="preserve"><g><path d="M72.7,69.7l4.1-24.3H62.9v4.3h-1.2l-6.8-6H35l-0.2,1.5L34.8,46c0,1,0.2,2.1,0.6,3.1l-3.9-5.9c-1.6-3-4.9-5.3-8.4-4.2   l-1.6,0.5c-0.1,0-0.2,0.1-0.3,0.1l-1.6,0.8l0.4,0.8c-2.3-0.7-5-0.5-6.8,1.3l-1.1,1.1c-0.1,0.1-0.1,0.2-0.2,0.2l-1.3,1.4l17.6,12.1   l25.3,9.4h9.3v2.9H72.7z M28.6,44.8l1.2,1.8L25.4,44l0,0l-1-1.9C26.1,41.7,27.8,43.1,28.6,44.8z M54.2,63.4l-24.4-9l-14.1-9.7   c1.3-1.1,3.5-0.6,4.9,0.5l9.6,5.5l4.1,2.4h6.2c0.1,0,0.2,0,0.4,0l9.9,0v-3.4H40.8c-0.6-0.1-1.2-0.5-1.7-1.1c-0.4-0.5-0.6-1-0.8-1.6   h15.3l6.8,6h2.5v10.4H54.2z"/><ellipse cx="43.6" cy="20.3" rx="7" ry="7"/><path d="M32.8,28.7v7.9c0,0.4,0.2,0.9,0.5,1.2c0.3,0.3,0.7,0.5,1.2,0.5l18.2,0c0.9,0,1.7-0.8,1.7-1.7v-7.8c0-1.8-0.9-3.4-2.5-4.7   c-1.4,3.2-4.6,5.5-8.4,5.5c-3.7,0-6.9-2.2-8.4-5.5C33.7,25.3,32.8,26.9,32.8,28.7z"/></g><text x="0" y="106" fill="#000000" font-size="5px" font-weight="bold" font-family="'Helvetica Neue', Helvetica, Arial-Unicode, Arial, Sans-serif">Created by BomSymbols</text><text x="0" y="111" fill="#000000" font-size="5px" font-weight="bold" font-family="'Helvetica Neue', Helvetica, Arial-Unicode, Arial, Sans-serif">from the Noun Project</text></svg>