<svg xmlns="http://www.w3.org/2000/svg" xmlns:xlink="http://www.w3.org/1999/xlink" version="1.1" x="0px" y="0px" viewBox="0 0 109 136.25" enable-background="new 0 0 109 109" xml:space="preserve"><path fill="#000000" d="M77.218,27.787c0-3.662,2.966-6.63,6.628-6.63c3.662,0,6.629,2.968,6.629,6.63  c0,3.661-2.967,6.63-6.629,6.63C80.184,34.417,77.218,31.448,77.218,27.787z M101.936,57.385l-5.283-10.141  c-0.073-0.143-0.165-0.268-0.254-0.396L92.17,38.73c-0.735-1.443-2.347-2.134-3.856-1.777c-0.298-0.063-0.604-0.102-0.921-0.102  h-7.091c-0.317,0-0.625,0.039-0.923,0.103c-1.509-0.358-3.121,0.333-3.857,1.776l-4.229,8.119c-0.088,0.127-0.182,0.252-0.254,0.396  l-5.283,10.141c-0.226,0.442-0.341,0.911-0.366,1.376l-4.047,1.32c-0.083,0.026-0.158,0.065-0.235,0.101l-4.259,1.389  c-0.217-0.055-0.441-0.093-0.675-0.093h-4.504c-0.038,0-0.074,0.009-0.112,0.011l-4.008-1.307c-0.077-0.036-0.152-0.075-0.235-0.101  l-4.656-1.518c-0.045-0.4-0.15-0.799-0.344-1.178l-5.283-10.141c-0.072-0.143-0.166-0.268-0.254-0.396l-4.229-8.119  c-0.736-1.443-2.347-2.134-3.855-1.777c-0.298-0.063-0.605-0.102-0.922-0.102h-7.091c-0.317,0-0.625,0.039-0.922,0.103  c-1.509-0.358-3.121,0.333-3.857,1.776l-4.229,8.119c-0.089,0.127-0.181,0.252-0.254,0.396L6.133,57.385  c-0.866,1.694-0.19,3.768,1.502,4.631c1.695,0.864,3.767,0.191,4.63-1.503l4.061-7.794v0.228l-5.185,19.051l-0.022,0.084  c-0.034,0.171-0.053,0.348-0.053,0.529c0,1.493,1.21,2.703,2.703,2.703h2.557l-0.002,10.571c-0.019,2.008,1.596,3.65,3.603,3.668  c2.007,0.017,3.65-1.596,3.667-3.604l0.002-10.634h0.626h0.002h0.626L24.85,85.886c-0.019,2.008,1.596,3.65,3.603,3.668  c2.006,0.017,3.65-1.596,3.667-3.604l0.001-10.634h2.557c1.493,0,2.704-1.21,2.704-2.703c0-0.181-0.02-0.358-0.053-0.529  l-0.023-0.084l-5.184-19.048v-0.229l4.059,7.791c0.864,1.694,2.936,2.367,4.631,1.503c0.042-0.021,0.075-0.053,0.117-0.075L45,63.27  c0.076,0.037,0.151,0.075,0.235,0.102l3.67,1.197V75.58c0,0.71,0.275,1.351,0.715,1.839l-0.001,2.912  c-0.001,0.125,0.013,0.247,0.034,0.365c-0.014,0.095-0.03,0.189-0.031,0.288l-0.002,6.573c-0.008,1.095,0.87,1.987,1.962,1.998  c1.094,0.009,1.987-0.868,1.997-1.962l0.001-6.575c0.001-0.123-0.012-0.242-0.034-0.359c0.016-0.097,0.032-0.193,0.033-0.293v-2.023  h0.683v1.989c-0.002,0.125,0.012,0.246,0.033,0.364c-0.015,0.095-0.031,0.19-0.032,0.289l-0.001,6.573  c-0.01,1.095,0.869,1.987,1.962,1.998c1.093,0.009,1.988-0.868,1.996-1.962l0.001-6.575c0.001-0.122-0.013-0.242-0.033-0.358  c0.015-0.097,0.031-0.193,0.032-0.294v-2.943c0.441-0.489,0.718-1.13,0.718-1.842V64.833l4.483-1.462  c0.083-0.027,0.158-0.065,0.235-0.102l3.711-1.21c1.674,0.783,3.676,0.113,4.521-1.545l4.06-7.794v6.329  c0,0.265,0.033,0.523,0.079,0.775c-0.048,0.23-0.076,0.467-0.079,0.711L75.947,72.61c-0.003,0.228,0.023,0.447,0.06,0.663  c-0.027,0.177-0.057,0.353-0.059,0.538l-0.001,12.075c-0.019,2.008,1.596,3.65,3.603,3.668c2.007,0.017,3.65-1.596,3.667-3.604  l0.002-12.076c0.002-0.228-0.022-0.449-0.061-0.665c0.028-0.176,0.057-0.351,0.059-0.535l0.002-9.273h1.254l-0.001,9.209  c-0.002,0.228,0.023,0.447,0.061,0.663c-0.027,0.177-0.057,0.353-0.059,0.538l-0.002,12.075c-0.019,2.008,1.596,3.65,3.603,3.668  c2.007,0.017,3.65-1.596,3.667-3.604l0.003-12.076c0.001-0.228-0.023-0.449-0.062-0.665c0.028-0.176,0.057-0.351,0.059-0.535  l0.003-12.076c0.002-0.264-0.027-0.522-0.078-0.771c0.045-0.254,0.078-0.512,0.078-0.779v-6.326l4.059,7.791  c0.863,1.694,2.936,2.367,4.63,1.503C102.126,61.153,102.802,59.079,101.936,57.385z M53.922,59.708c2.904,0,5.26-2.356,5.26-5.261  c0-2.907-2.356-5.259-5.26-5.259c-2.907,0-5.259,2.352-5.259,5.259C48.663,57.352,51.015,59.708,53.922,59.708z M24.223,35.77h0.004  c0,0,8.862,0.29,8.862-4.063c0,0-1.239,0.581-1.311-0.653s1.795-11.244-7.553-11.171l0,0c-9.349-0.072-7.481,9.938-7.553,11.171  c-0.072,1.233-1.311,0.653-1.311,0.653C15.36,36.059,24.223,35.77,24.223,35.77z"/><text x="0" y="124" fill="#000000" font-size="5px" font-weight="bold" font-family="'Helvetica Neue', Helvetica, Arial-Unicode, Arial, Sans-serif">Created by Samy Menai</text><text x="0" y="129" fill="#000000" font-size="5px" font-weight="bold" font-family="'Helvetica Neue', Helvetica, Arial-Unicode, Arial, Sans-serif">from the Noun Project</text></svg>