<svg xmlns="http://www.w3.org/2000/svg" xmlns:xlink="http://www.w3.org/1999/xlink" version="1.1" x="0px" y="0px" viewBox="0 0 95 118.75" enable-background="new 0 0 95 95" xml:space="preserve"><g><path d="M57.311,8.144H37.689c-6.477,0-11.746,5.27-11.746,11.745h6.908c0-2.667,2.17-4.836,4.838-4.836h19.621   c2.666,0,4.836,2.169,4.836,4.836h6.908C69.055,13.413,63.787,8.144,57.311,8.144z"/><path d="M84.76,21.915H10.24c-1.936,0-3.504,1.568-3.504,3.504v57.935c0,1.935,1.568,3.503,3.504,3.503h74.52   c1.934,0,3.504-1.568,3.504-3.503V25.419C88.264,23.483,86.693,21.915,84.76,21.915z M68.492,57.091   c0,2.757-2.234,4.993-4.992,4.993h-7.686v7.687c0,2.757-2.236,4.992-4.994,4.992h-5.74c-2.758,0-4.994-2.235-4.994-4.992v-7.687   h-7.688c-2.758,0-4.992-2.236-4.992-4.993V51.35c0-2.757,2.234-4.994,4.992-4.994h7.688v-7.687c0-2.759,2.236-4.993,4.994-4.993   h5.74c2.758,0,4.994,2.234,4.994,4.993v7.687H63.5c2.758,0,4.992,2.237,4.992,4.994V57.091z"/></g><text x="0" y="110" fill="#000000" font-size="5px" font-weight="bold" font-family="'Helvetica Neue', Helvetica, Arial-Unicode, Arial, Sans-serif">Created by Guilherme Furtado</text><text x="0" y="115" fill="#000000" font-size="5px" font-weight="bold" font-family="'Helvetica Neue', Helvetica, Arial-Unicode, Arial, Sans-serif">from the Noun Project</text></svg>