<?xml version="1.0" encoding="iso-8859-1"?>
<!-- Generator: Adobe Illustrator 19.0.0, SVG Export Plug-In . SVG Version: 6.00 Build 0)  -->
<svg version="1.1" id="Layer_1" xmlns="http://www.w3.org/2000/svg" xmlns:xlink="http://www.w3.org/1999/xlink" x="0px" y="0px"
	 viewBox="0 0 512 512" style="enable-background:new 0 0 512 512;" xml:space="preserve">
<g>
	<g>
		<path d="M440.42,119.594c12.302,0,24.602-4.682,33.968-14.046l34.624-34.624c2.469-2.469,3.503-6.03,2.742-9.437
			c-0.761-3.408-3.213-6.188-6.498-7.371l-24.225-8.721l10.669-10.669c3.983-3.983,3.983-10.441,0-14.425
			c-3.984-3.982-10.44-3.982-14.425,0l-10.669,10.669l-8.72-24.224c-1.183-3.285-3.964-5.737-7.372-6.499
			c-3.411-0.762-6.968,0.274-9.437,2.742l-34.624,34.624c-9.073,9.073-14.07,21.137-14.07,33.967c0,9.36,2.67,18.303,7.629,25.983
			l-16.509,16.509c-31.999-28.822-73.614-47.163-119.385-49.548V14.361c0-5.633-4.567-10.199-10.199-10.199
			c-5.632,0-10.199,4.566-10.199,10.199v50.164c-98.773,5.146-178.21,84.583-183.355,183.357H10.199
			C4.567,247.881,0,252.448,0,258.081s4.567,10.199,10.199,10.199h50.165c5.145,98.774,84.583,178.211,183.356,183.357v50.164
			c0,5.633,4.567,10.199,10.199,10.199s10.199-4.566,10.199-10.199v-50.165c98.775-5.146,178.212-84.583,183.357-183.357h50.165
			c5.632,0,10.199-4.566,10.199-10.199c0-5.633-4.567-10.199-10.199-10.199h-50.165c-2.385-45.772-20.726-87.386-49.549-119.385
			l16.516-16.516C422.325,117.05,431.37,119.594,440.42,119.594z M264.119,84.962c40.15,2.341,76.672,18.4,104.943,43.552
			l-70.815,70.815c-9.772-7.391-21.438-12.393-34.128-14.16V84.962z M243.72,84.962V185.17
			c-32.454,4.519-58.192,30.258-62.711,62.711H80.802C85.904,160.36,156.199,90.064,243.72,84.962z M243.72,431.199
			c-87.521-5.103-157.816-75.398-162.918-162.919h100.207c4.518,32.454,30.257,58.193,62.711,62.712V431.199z M253.919,311.315
			c-29.353,0-53.234-23.881-53.234-53.235c0-29.353,23.88-53.235,53.234-53.235c10.998,0,21.228,3.352,29.72,9.09l-36.933,36.933
			c-3.983,3.983-3.983,10.441,0,14.425c1.992,1.991,4.602,2.987,7.212,2.987s5.22-0.996,7.212-2.987l36.933-36.933
			c5.738,8.493,9.091,18.723,9.091,29.721C307.154,287.435,283.273,311.315,253.919,311.315z M264.119,431.198V330.991
			c32.454-4.518,58.193-30.258,62.712-62.712h100.207C421.936,355.801,351.64,426.096,264.119,431.198z M427.038,247.881H326.83
			c-1.766-12.69-6.768-24.356-14.16-34.128l70.815-70.815C408.637,171.209,424.697,207.731,427.038,247.881z M465.089,61.334
			l18.135,6.528l-23.26,23.26c-8.23,8.23-20.397,10.168-30.49,5.827L465.089,61.334z M420.878,52.035l23.26-23.26l6.527,18.134
			l-35.627,35.627c-1.476-3.414-2.257-7.124-2.257-10.957C412.782,64.197,415.656,57.256,420.878,52.035z"/>
	</g>
</g>
<g>
	<g>
		<path d="M386.093,333.896c-4.682-3.126-11.017-1.866-14.145,2.819c-19.718,29.535-49.455,50.488-83.728,59
			c-5.467,1.358-8.798,6.89-7.44,12.356c1.153,4.642,5.314,7.743,9.89,7.743c0.814,0,1.641-0.098,2.466-0.303
			c39.216-9.739,73.23-33.7,95.777-67.47C392.04,343.358,390.777,337.025,386.093,333.896z"/>
	</g>
</g>
<g>
	<g>
		<path d="M402.451,292.129c-5.39-1.62-11.08,1.438-12.702,6.833c-0.863,2.87-1.83,5.749-2.874,8.557
			c-1.965,5.279,0.721,11.151,6,13.116c1.173,0.437,2.374,0.644,3.556,0.644c4.139,0,8.031-2.539,9.56-6.645
			c1.197-3.217,2.305-6.515,3.293-9.802C410.905,299.436,407.847,293.75,402.451,292.129z"/>
	</g>
</g>
<g>
</g>
<g>
</g>
<g>
</g>
<g>
</g>
<g>
</g>
<g>
</g>
<g>
</g>
<g>
</g>
<g>
</g>
<g>
</g>
<g>
</g>
<g>
</g>
<g>
</g>
<g>
</g>
<g>
</g>
</svg>
