<svg xmlns="http://www.w3.org/2000/svg" viewBox="0 0 64 80" x="0px" y="0px"><g><g data-name="Glyph"><path d="M46.982,15.021a1.248,1.248,0,1,0,1.247,1.248A1.249,1.249,0,0,0,46.982,15.021Z"/><path d="M16.269,46.484a1.248,1.248,0,1,0,1.247,1.247A1.249,1.249,0,0,0,16.269,46.484Z"/><path d="M32,2A30,30,0,1,0,62,32,30,30,0,0,0,32,2ZM16.269,50.979a3.23,3.23,0,0,1-2.443-5.364A22.461,22.461,0,0,1,9.276,32,22.735,22.735,0,0,1,41.617,11.405a1,1,0,0,1-.847,1.812A20.719,20.719,0,0,0,15.539,44.574a3.193,3.193,0,0,1,.73-.09,3.248,3.248,0,0,1,0,6.495ZM37.3,28H40a1,1,0,0,1,0,2H37.3a7,7,0,0,1-6.92,6H27l4.8,6.4a1,1,0,1,1-1.6,1.2l-6-8a.821.821,0,0,1-.049-.1.812.812,0,0,1-.128-.384A.823.823,0,0,1,24,35c0-.024.012-.044.014-.067a.927.927,0,0,1,.04-.2.994.994,0,0,1,.061-.174,1.046,1.046,0,0,1,.1-.151,1.026,1.026,0,0,1,.139-.155c.018-.015.027-.037.045-.051a1.074,1.074,0,0,1,.1-.049.943.943,0,0,1,.184-.088,1.006,1.006,0,0,1,.2-.041A1.037,1.037,0,0,1,25,34h5.375a5.009,5.009,0,0,0,4.9-4H25a1,1,0,0,1,0-2H35.274a5.009,5.009,0,0,0-4.9-4H25a1,1,0,0,1,0-2H40a1,1,0,0,1,0,2H35.264A6.975,6.975,0,0,1,37.3,28ZM32,54.724a22.769,22.769,0,0,1-10.578-2.607,1,1,0,0,1,.933-1.769A20.711,20.711,0,0,0,48.3,19.231a3.218,3.218,0,0,1-1.316.285,3.248,3.248,0,1,1,3.247-3.247,3.209,3.209,0,0,1-.447,1.616A22.7,22.7,0,0,1,32,54.724Z"/></g></g><text x="0" y="79" fill="#000000" font-size="5px" font-weight="bold" font-family="'Helvetica Neue', Helvetica, Arial-Unicode, Arial, Sans-serif">Created by Flowicon</text><text x="0" y="84" fill="#000000" font-size="5px" font-weight="bold" font-family="'Helvetica Neue', Helvetica, Arial-Unicode, Arial, Sans-serif">from the Noun Project</text></svg>