<svg xmlns="http://www.w3.org/2000/svg" xmlns:xlink="http://www.w3.org/1999/xlink" version="1.1" x="0px" y="0px" viewBox="0 0 512 640" style="enable-background:new 0 0 512 512;" xml:space="preserve"><g><path d="M285.044,257.518v-15.749c0-4.514-2.024-8.724-5.555-11.539l-13.932-11.044l-34.929-35.397   c1.584-10.32,4.491-17.135,8.808-26.774l1.655-3.716c0.089-0.185,7.978-19.909,6.131-28.072c-0.007-0.03-0.03-0.077-0.038-0.107   l6.474-9.167c1.744,0.698,3.549,1.17,5.369,1.17c2.231,0,4.447-0.524,6.471-1.574c4.949-2.549,7.816-7.542,8.052-14.058   c0.059-1.441,0.325-2.8,0.813-4.041l0.547-1.388c0.174,0.01,0.344,0.08,0.517,0.08c2.187,0,4.344-0.776,6.102-2.268   c2.719-2.349,3.871-6.117,3.103-8.643l-1.079-9.64c2.039-2.63,3.029-5.917,2.733-9.884l-2.261-12.699   c-0.042-0.243-0.188-0.43-0.258-0.66c-0.1-0.331-0.189-0.649-0.342-0.953c-0.059-0.119-0.057-0.25-0.125-0.367   c-0.032-0.056-0.078-0.103-0.111-0.16c-0.04-0.064-0.084-0.119-0.126-0.181c-5.769-9.748-14.575-17.591-24.88-22.072   c-5.999-2.615-11.628-5.053-11.982-5.201c-2.837-1.056-5.57,0.015-8.82,1.965c-6.338,3.797-23.255,16.932-25.309,31.928   c-0.03,0.199-2.305,19.621,1.862,33.117l-2.941,2.763c-6.123-2.081-12.778-2.239-18.881-0.155   c-21.349,7.276-61.994,30.982-94.292,107.544c-1.064,2.091-25.752,52.442-10.534,162.247c0.532,3.797-0.621,7.646-3.177,10.549   c-6.252,7.094-30.234,40.325-36.948,49.659c-0.562,0.356-1.107,0.756-1.54,1.306l-17.848,22.59   c-1.98,2.504-1.684,6.117,0.694,8.252L48.96,473.59c2.349,2.113,5.954,2.076,8.244-0.14l1.522-1.47   C72.008,485.173,87.965,489,102.03,489c11.908,0,22.443-2.748,28.84-4.876c6.205-2.068,10.268-8.133,9.869-14.723   c-0.458-7.712-6.811-13.748-14.464-13.748c-4.152,0-8.259-1.064-11.894-3.066l-6.702-3.692   c9.543-12.584,22.161-36.213,37.803-70.972c0.362-0.801,0.668-1.64,1.016-2.448c21.261,66.463,26.179,74.808,29.317,77.355   c0.318,0.259,0.764,0.212,1.124,0.399l9.883,25.42c0.931,2.371,3.206,3.856,5.644,3.856c0.517,0,1.034-0.066,1.551-0.199   l24.511-6.479c3.191-0.85,5.127-4.107,4.314-7.321l-0.074-0.332c33.302-3.605,49.273-33.79,54.799-47.323   c2.482-6.072,0.576-13.112-4.624-17.124c-6.117-4.75-14.834-3.797-19.813,2.098c-2.719,3.199-6.205,5.681-10.653,7.424   l-10.624,5.416c-0.942-2.55-2.182-5.418-4.284-8.954c-3.177-5.371-8.318-23.573-13.755-42.846   c-7.908-28.054-17.702-62.562-28.398-83.793l1.863-4.995c4.285-11.48,10.194-22.627,17.582-33.132   c2.024-2.866,3.9-5.932,6.013-9.411c0.854-1.393,1.972-3.128,2.935-4.675l35.494,21.659c0.576,0.355,1.005,0.909,1.212,1.559   c0.96,3.221,3.295,5.799,6.235,7.838c0.458,1.684,1.33,3.258,2.512,4.551l0.333,0.368c-0.777,2.044-1.264,4.204-1.264,6.488v6.08   c0,3.339,2.719,6.05,6.058,6.05c3.339,0,6.058-2.711,6.058-6.05v-5.953c0.415,0.04,0.792,0.258,1.212,0.258   c1.108,0,2.216-0.14,3.31-0.421c2.385-0.609,4.358-1.956,6.011-3.606c0.77,1.031,1.287,2.285,1.287,3.643v188.694   c0,3.339,2.719,6.05,6.058,6.05c3.339,0,6.058-2.711,6.058-6.05V273.32C294.381,266.557,290.643,260.625,285.044,257.518z    M224.069,58.955c1.271-9.36,14.612-20.411,19.783-23.373c2.187,0.946,5.762,2.504,9.515,4.13   c4.876,2.121,9.237,5.301,12.984,9.112c-10.857,1.176-27.423,4.169-42.456,12.101C223.987,59.793,224.066,58.973,224.069,58.955z    M224.438,96.926c1.492-2.261,2.113-4.964,1.433-8.931c-1.332-3.624-1.933-8.214-2.182-12.671   c16.825-11.284,39.171-14.237,49.139-14.945l1.075,7.906c-2.246,2.541-3.058,6.013-2.334,8.326l0.709,6.353   c-0.119-0.019-0.219,0.076-0.338,0.064c-1.296-0.16-2.543,0.072-3.649,0.693c-0.136,0.075-0.229,0.162-0.358,0.247   c-1.004,0.662-1.879,1.536-2.347,2.742l-2.497,6.324c-0.975,2.526-1.537,5.223-1.625,8.015c-0.059,1.381-0.355,3.147-1.522,3.753   c-0.635,0.325-1.433,0.259-2.157-0.133c-3.768-2.12-6.87-4.137-9.382-6.058c-1.95-1.485-3.191-3.804-3.413-6.375   c-0.281-3.317-2.955-5.74-6.545-5.518c-3.324,0.281-5.792,3.213-5.511,6.538c0.502,5.984,3.472,11.443,8.141,14.981   c0.638,0.487,1.434,1.003,2.138,1.502l-4.664,6.609c-10.889-6.235-16.193-11.827-18.616-15.063L224.438,96.926z M108.546,463.196   c5.422,2.984,11.554,4.558,17.73,4.558c1.256,0,2.305,1.034,2.379,2.371c0.074,1.138-0.591,2.179-1.625,2.519   c-12.366,4.13-43.378,11.147-63.324-13.172c-1.079-1.308-2.645-2.105-4.329-2.209c-1.743-0.133-3.324,0.51-4.551,1.684   l-1.965,1.884L40.79,449.973l9.834-12.453c11.112,10.579,24.598,18.033,39.675,21.318l4.24,0.783c0.015,0,0.015,0,0.03,0   c1.299,0,2.783-0.652,4.379-1.705L108.546,463.196z M230.931,432.723l16.467-8.436c5.747-2.216,10.918-5.888,14.967-10.623   c0.783-0.96,2.172-1.115,3.191-0.362c0.901,0.702,1.241,1.928,0.813,2.97c-4.964,12.137-19.724,40.157-50.308,40.157   c-0.281,0-0.576,0-0.857-0.007c-1.95-0.089-3.679,0.82-4.846,2.283c-1.167,1.477-1.581,3.413-1.123,5.238l0.428,1.714   l-13.519,3.568l-6.579-16.934C204.66,448.988,218.862,442.392,230.931,432.723z M202.173,370.146   c6.146,21.793,11.007,39.012,14.996,45.75c2.423,4.078,3.575,7.136,4.137,9.049c-11.362,8.554-24.703,14.265-38.783,16.585   c-3.103-6.235-10.608-25.664-28.781-83.218l-0.568-1.778c1.429-5.063,2.728-10.33,3.818-16.085v-23.735   c0-3.339-2.719-6.05-6.058-6.05s-6.058,2.711-6.058,6.05l0.118,22.561c-2.467,12.507-5.821,23.204-10.534,33.679   c-25.796,57.296-37.631,71.132-40.94,74.191l-0.65-0.133c-13.149-2.866-25.043-9.264-34.646-18.623   c7.919-10.992,29.461-40.778,34.957-47.013c4.905-5.555,7.121-12.935,6.102-20.226c-7.345-52.936-5.029-91.658-0.848-117.229   c14.692,10.302,47.274,32.098,75.959,44.131C184.632,308.122,194.332,342.374,202.173,370.146z M200.548,229.233   c-1.965,3.228-3.694,6.072-5.585,8.747c-7.978,11.354-14.376,23.418-19.03,35.873l-0.547,1.477   c-29.851-13.28-64-37.014-74.412-44.45c3.702-16.545,7.648-24.869,7.808-25.212c30.643-72.602,67.801-94.558,87.229-101.177   c3.9-1.321,8.154-0.931,12.015,0.645c2.634,4.648,9.809,13.727,27.369,23.215c0.143,3.759-3.684,16.055-5.373,20.065l-1.64,3.657   c-3.346,7.473-6.003,13.661-7.938,21.062c-0.517-0.86-0.829-1.876-0.661-3.207l1.95-32.489c0.975-8.06-3.31-15.757-10.505-18.786   c-15.646-6.612-26.151-3.398-33.524,0.111c-6.176,2.933-10.15,9.035-10.372,15.683l-3.856,55.951   c-0.222,6.161,3.147,12.034,8.274,14.797l31.732,19.363C202.524,226.099,201.392,227.84,200.548,229.233z M272.928,259.72   c-0.067,0.219-0.208,0.398-0.251,0.628c-0.025,0.137,0.022,0.263,0.006,0.399c-0.22,0.35-0.65,0.611-1.883,0.443l-2.778-3.871   c-0.901-3.302-3.339-6.05-5.925-6.745c-1.064-3.516-3.383-6.501-6.501-8.392l-40.386-24.637c-0.009-0.006-0.013-0.016-0.022-0.022   c-0.013-0.008-0.029-0.008-0.042-0.017l-37.368-22.795c-1.404-0.761-2.261-2.29-2.216-3.686l3.856-55.966   c0.074-2.327,1.418-4.381,3.487-5.363c3.177-1.514,6.693-2.763,11.096-2.763c3.516,0,7.594,0.79,12.529,2.874   c2.201,0.931,3.546,3.561,3.177,6.257c-0.015,0.148-0.03,0.296-0.044,0.443l-1.921,32.253c-0.68,5.009,1.049,10.135,4.58,13.711   l45.151,45.698l14.464,11.524c0.621,0.495,0.99,1.271,0.99,2.076V259.72z"/><path d="M483.526,69.586c-1.285-1.145-2.984-1.699-4.698-1.507c-49.554,5.422-84.407-17.375-84.762-17.611   c-2.039-1.359-4.698-1.359-6.737,0c-0.355,0.236-35.193,23.019-84.762,17.611c-1.714-0.236-3.413,0.355-4.698,1.507   c-1.271,1.152-2.009,2.785-2.009,4.506v72.425c0,56.542,31.352,107.53,81.807,133.068l10.298,5.215   c0.857,0.436,1.802,0.65,2.733,0.65c0.931,0,1.876-0.214,2.733-0.65l10.298-5.215c50.455-25.538,81.807-76.525,81.807-133.068   V74.092C485.535,72.371,484.796,70.738,483.526,69.586z M473.42,146.517c0,51.955-28.796,98.805-75.158,122.267l-7.565,3.834   l-7.565-3.834c-46.363-23.462-75.158-70.312-75.158-122.267V80.689c42.004,2.778,72.809-12.403,82.723-18.106   c9.914,5.703,40.793,20.877,82.723,18.106V146.517z"/><path d="M390.697,92.531c-34.395,0-62.393,27.983-62.393,62.378s27.998,62.378,62.393,62.378s62.378-27.983,62.378-62.378   S425.092,92.531,390.697,92.531z M390.697,205.187c-27.732,0-50.278-22.553-50.278-50.278s22.546-50.278,50.278-50.278   c27.717,0,50.263,22.553,50.263,50.278S418.414,205.187,390.697,205.187z"/><path d="M416.612,135.318l-37.409,29.084l-4.654-9.988c-1.404-3.029-5.009-4.329-8.037-2.933c-3.029,1.411-4.344,5.016-2.925,8.045   l7.86,16.873c0.768,1.67,2.275,2.896,4.063,3.324c0.473,0.118,0.946,0.17,1.418,0.17c1.33,0,2.645-0.436,3.708-1.271l43.393-33.745   c2.645-2.054,3.117-5.858,1.064-8.495C423.038,133.73,419.212,133.257,416.612,135.318z"/></g><text x="0" y="527" fill="#000000" font-size="5px" font-weight="bold" font-family="'Helvetica Neue', Helvetica, Arial-Unicode, Arial, Sans-serif">Created by Shakeel Ch.</text><text x="0" y="532" fill="#000000" font-size="5px" font-weight="bold" font-family="'Helvetica Neue', Helvetica, Arial-Unicode, Arial, Sans-serif">from the Noun Project</text></svg>