<svg xmlns="http://www.w3.org/2000/svg" xmlns:xlink="http://www.w3.org/1999/xlink" version="1.1" x="0px" y="0px" viewBox="0 0 52 65" enable-background="new 0 0 52 52" xml:space="preserve"><g><g><path d="M31.5157433,24.2895508h-1v-6.1762695c0-1.3837891-1.2207031-2.5097656-2.7207031-2.5097656    c-1.4707031,0.2050781-2.2841797,1.074707-2.2841797,2.5097656v6.1762695h-1v-6.1762695    c0-1.9487305,1.1728516-3.2265625,3.2167969-3.5053711c0.0029297,0,0.0058594,0,0.0087891,0    c2.1152344,0,3.7792969,1.5727539,3.7792969,3.5053711V24.2895508z"/></g><g><path d="M37.5206261,24.2895508h-1v-6.1762695c0-1.3837891-1.2207031-2.5097656-2.7207031-2.5097656    c-1.4707031,0.2050781-2.2841797,1.074707-2.2841797,2.5097656v6.1762695h-1v-6.1762695    c0-1.9487305,1.1728516-3.2265625,3.2167969-3.5053711c0.0029297,0,0.0058594,0,0.0087891,0    c2.1152344,0,3.7792969,1.5727539,3.7792969,3.5053711V24.2895508z"/></g><g><path d="M24.3223839,49.2143555c-0.0009766-1.8759766-0.4482422-6.9462891-2.4794922-7.8613281    c-0.5625-0.3095703-5.1816406-2.9257813-5.4248047-5.1259766l-1.1630869-3.8496094L9.659297,25.5537109    c-2.4374995-1.6357422-3.0624995-3.3022461-3.1562495-4.4155273c-0.0634766-0.7348633,0.2998047-1.46875,0.9482422-1.9135742    c3.6494136-2.5019531,9,1.1982422,11.0546875,2.8325195l-0.0048828-15.956543    c0-1.8989258,1.5400391-3.3862305,3.5068359-3.3862305c1.4101563,0,3.5029297,1.4106445,3.5029297,3.359375v18.2158203h-1    V6.0737305c0-1.362793-1.6464844-2.359375-2.5029297-2.359375c-1.4052734,0-2.5068359,1.0483398-2.5068359,2.3862305    l0.0048828,18.15625L18.6700401,23.5c-0.0673828-0.0610352-6.8046885-6.0883789-10.6523447-3.4511719    c-0.3525386,0.2416992-0.5507808,0.6264648-0.5185542,1.0043945c0.0761719,0.9042969,0.6191401,2.2802734,2.7763667,3.7089844    l0.1103516,0.1000977l5.7978525,7.1313477l1.2099609,4.0351563c0.1591797,1.3613281,3.0849609,3.4277344,4.8964844,4.4306641    c2.9462891,1.3251953,3.0322266,7.9980469,3.0322266,8.7548828H24.3223839z"/></g><g><path d="M42.1553917,49.2856445c-0.0537109-0.3740234-0.3154297-4.5205078-0.2919922-5.1162109    c0.0107422-0.2734375,0.0166016-0.5410156,0.0214844-0.8017578c0.015625-0.8203125,0.03125-1.5957031,0.2109375-2.3027344    c0.1601563-0.6298828,1.4160156-3.7216797,1.5585938-4.0722656c0.015625-0.0429688,2.1591797-6.0732422-0.4863281-11.5527344    c-0.4199219-0.8706055-0.6425781-1.8393555-0.6425781-2.8007813v-4.5258789c0-1.3837891-1.2197266-2.5097656-2.7197266-2.5097656    c-1.4716797,0.2050781-2.2851563,1.074707-2.2851563,2.5097656v6.1762695h-1v-6.1762695    c0-1.9487305,1.1728516-3.2265625,3.2177734-3.5053711c0.0029297,0,0.0058594,0,0.0087891,0    c2.1142578,0,3.7783203,1.5727539,3.7783203,3.5053711v4.5258789c0,0.8120117,0.1875,1.6303711,0.5429688,2.3662109    c2.8339844,5.8681641,0.6142578,12.0859375,0.5185547,12.3476563c-0.5566406,1.3671875-1.4140625,3.5322266-1.5224609,3.9580078    c-0.1503906,0.5957031-0.1650391,1.3144531-0.1796875,2.0761719c-0.0058594,0.2675781-0.0107422,0.5419922-0.0214844,0.8222656    c-0.0224609,0.5419922,0.2402344,4.6416016,0.2822266,4.9335938L42.1553917,49.2856445z"/></g></g><text x="0" y="67" fill="#000000" font-size="5px" font-weight="bold" font-family="'Helvetica Neue', Helvetica, Arial-Unicode, Arial, Sans-serif">Created by DinosoftLab</text><text x="0" y="72" fill="#000000" font-size="5px" font-weight="bold" font-family="'Helvetica Neue', Helvetica, Arial-Unicode, Arial, Sans-serif">from the Noun Project</text></svg>