<svg xmlns:rdf="http://www.w3.org/1999/02/22-rdf-syntax-ns#" xmlns="http://www.w3.org/2000/svg" xmlns:cc="http://creativecommons.org/ns#" xmlns:dc="http://purl.org/dc/elements/1.1/" version="1.1" x="0px" y="0px" viewBox="0 0 100 125"><g transform="translate(0,-952.36218)"><path style="baseline-shift:baseline;block-progression:tb;color:#000000;direction:ltr;text-indent:0;enable-background:accumulate;text-transform:none;" fill="#000" d="m91.785,957.35a1.0001,1.0001,0,0,0,-0.34375,0.125c-4.8203,2.6028-7.8428,4.9311-12.656,4.9062-4.7284-0.0248-8.5671-2.4715-14.125-4.7188a1.0001,1.0001,0,0,0,-0.125,-0.0625c-0.0242-0.01-0.03823-0.0215-0.0625-0.0312a1.0001,1.0001,0,0,0,-0.03125,0,1.0001,1.0001,0,0,0,-0.125,-0.0312,1.0001,1.0001,0,0,0,-0.65625,0.0312,1.0001,1.0001,0,0,0,-0.09375,0.0625c-4.3789,1.9781-9.5018,4.7357-14.219,4.7188-4.9767-0.0173-7.5439-1.1226-13.531-4.8438a1.0001,1.0001,0,0,0,-0.65625,-0.125,1.0001,1.0001,0,0,0,-0.875,1c0,0.34695-0.0625,0.75671-0.0625,1.2812,0,5.5117-0.1357,11.886-0.0625,17.906,0.65071-0.0747,1.2982-0.125,1.9688-0.125,0.03177,0,0.06201-0.00017,0.09375,0-0.08609-5.817-0.004-12.02,0-17.438,5.019,2.9875,8.3177,4.3271,13.094,4.3438,5.0667,0.0182,9.9522-2.5017,14.031-4.4062l0.15625,30.219h-10.719c0.1779,0.64984,0.30522,1.3222,0.40625,2h10.312l0.15625,29.969c-5.8085-2.3095-12.635-6.8849-17.969-13.062-0.58472,0.389-1.2122,0.7144-1.8438,1.0313,6.1682,7.3229,14.351,12.478,21.031,14.656a1.0001,1.0001,0,0,0,0.65625,0c5.5731-1.9865,11.487-6.9086,16.375-12.5,4.8877-5.5915,8.7212-11.82,9.875-16.719,0.89128-3.784,1.1719-9.755,1.25-16.312,0.07814-6.5576-0.0625-13.665-0.0625-19.562,0-0.2732-0.02521-0.50745-0.03125-0.6875a1.0001,1.0001,0,0,0,0,-0.0312c-0.01559-0.18615-0.02609-0.38704-0.03125-0.59375a1.0001,1.0001,0,0,0,-1.0312,-1,1.0001,1.0001,0,0,0,-0.09375,0zm-0.8125,2.6562c0.0045,5.8641,0.13875,12.82,0.0625,19.219-0.04774,4.0064-0.1853,7.7942-0.46875,10.906h-25.062l-0.15625-30c4.6915,2.034,8.5417,4.2244,13.438,4.25,4.8674,0.0251,8.2069-2.1295,12.188-4.375zm-54.844,19.406c-8.4363,0-15.25,6.8446-15.25,15.281,0,8.4365,6.8137,15.25,15.25,15.25s15.281-6.8134,15.281-15.25-6.8449-15.281-15.281-15.281zm-2.7812,6.9375,5.5625,0,0,5.5625,5.5625,0,0,5.5625-5.5625,0,0,5.5625-5.5625,0,0-5.5625-5.5312,0,0-5.5625,5.5312,0,0-5.5625zm32.156,5.7812,24.844,0c-0.14197,1.1227-0.30154,2.0949-0.5,2.9375-1.0082,4.2802-4.6981,10.422-9.4375,15.844-4.4861,5.132-9.9436,9.5872-14.75,11.562l-0.15625-30.344zm-57.655,22.26a1.0001,1.0001,0,0,0,-0.90625,1v22.406a1.0001,1.0001,0,0,0,1.0312,1s11.61-0.3763,18.5,0a1.0001,1.0001,0,0,0,0.09375,0c-0.27608,0.026,0.08076,0.028,0.46875,0.2187,0.40758,0.2003,0.97938,0.5185,1.625,0.9063,1.2912,0.7757,2.9408,1.8602,4.6562,2.9375,1.7155,1.0773,3.5063,2.1587,5.0938,3s2.8861,1.4915,4.125,1.5312a1.0001,1.0001,0,0,0,0.03125,0c10.819-0.1018,32.708-0.062,32.75-0.062,0.01112,0.0002,0.02015-0.0001,0.03125,0,3.8523,0.046,6.3233-3.0543,6.5312-6.1875,0.10427-1.5712-0.33782-3.1873-1.4062-4.4687s-2.7637-2.166-4.9688-2.3125a1.0001,1.0001,0,0,0,-0.0625,0h-17.906c0.01234-0.3743,0.11262-0.7394,0.03125-1.125-0.30733-1.4566-1.3235-2.8979-3.0625-4.0938-1.5654-1.0354-5.9401-4.1984-10.312-7.3125-4.3724-3.114-8.7384-6.1964-10.594-7.3125a1.0001,1.0001,0,0,0,-0.5,-0.125h-25.156a1.0001,1.0001,0,0,0,-0.09375,0zm1.0938,2,23.844,0c1.7151,1.0503,5.9743,4.0487,10.25,7.0938,4.3679,3.1108,8.6602,6.199,10.344,7.3125,1.4232,0.9787,2.0351,1.9734,2.2188,2.8437,0.18361,0.8702-0.03848,1.6714-0.53125,2.3125-0.98555,1.2824-2.9466,1.9104-4.8438,0.3438a1.0001,1.0001,0,0,0,-0.0625,-0.062l-14.844-10.219a1.0011,1.0011,0,1,0,-1.125,1.6563l14.781,10.156,0.0625,0.031c2.6613,2.146,6.0082,1.4162,7.625-0.6875,0.18377-0.2391,0.26806-0.5406,0.40625-0.8125h18.312,0.0625c1.7194,0.1291,2.8067,0.7623,3.5,1.5937,0.70276,0.8429,1.0118,1.9423,0.9375,3.0625-0.14867,2.2402-1.7137,4.3594-4.5312,4.3125,0,0-21.867-0.039-32.75,0.062-0.40624-0.013-1.7484-0.5167-3.25-1.3125-1.5016-0.7957-3.267-1.8375-4.9688-2.9062s-3.349-2.1647-4.6875-2.9688c-0.66924-0.402-1.2488-0.7224-1.75-0.9687-0.45991-0.226-0.77485-0.4187-1.375-0.4063v-0.031h-0.125c-6.5424-0.3476-15.95-0.08-17.5-0.031v-20.375z"/></g><text x="0" y="115" fill="#000000" font-size="5px" font-weight="bold" font-family="'Helvetica Neue', Helvetica, Arial-Unicode, Arial, Sans-serif">Created by Mosaic_icon</text><text x="0" y="120" fill="#000000" font-size="5px" font-weight="bold" font-family="'Helvetica Neue', Helvetica, Arial-Unicode, Arial, Sans-serif">from the Noun Project</text></svg>