<svg xmlns="http://www.w3.org/2000/svg" data-name="Layer 1" viewBox="0 0 64 80" x="0px" y="0px"><title>term-money-time-location-investment</title><path d="M25,55a1,1,0,0,1-1-1H22a3,3,0,0,0,2,2.816V58h2V56.816A2.993,2.993,0,0,0,25,51a1,1,0,1,1,1-1h2a3,3,0,0,0-2-2.816V46H24v1.184A2.993,2.993,0,0,0,25,53a1,1,0,0,1,0,2Z"/><path d="M12,53a9.863,9.863,0,0,0,3.026-.484A9.994,9.994,0,1,0,34.8,49.99c.066,0,.137.01.2.01,4.6,0,8.507-1.82,9.657-4.406C48.4,44.734,51,42.585,51,40c0-3.364-4.393-6-10-6-4.689,0-8.518,1.846-9.65,4.417-2.743.626-4.873,1.948-5.813,3.61C25.358,42.018,25.181,42,25,42a9.969,9.969,0,0,0-3.027.471A9.994,9.994,0,1,0,12,53ZM41,36c4.714,0,8,2.108,8,4s-3.286,4-8,4-8-2.108-8-4S36.286,36,41,36Zm-9.955,4.556C31.5,43.65,35.706,46,41,46c.3,0,.589-.011.879-.026A10.911,10.911,0,0,1,35,48c-.278,0-.573-.027-.862-.045a10.034,10.034,0,0,0-6.41-5.567A7.431,7.431,0,0,1,31.045,40.556ZM25,44a8,8,0,1,1-8,8A8.009,8.009,0,0,1,25,44ZM12,35a8.009,8.009,0,0,1,8,8c0,.125-.016.245-.023.367a10.01,10.01,0,0,0-4.827,6.971A7.876,7.876,0,0,1,12,51a8,8,0,0,1,0-16Z"/><path d="M11.553,43.9l4,2,.894-1.79L13,42.382V37H11v6A1,1,0,0,0,11.553,43.9Z"/><path d="M53,15c1.221,0,2,.592,2,1h2c0-1.421-1.259-2.571-3-2.9V10h7a1,1,0,0,0,.832-1.555L60.2,6l1.63-2.445A1,1,0,0,0,61,2H53a1,1,0,0,0-1,1V13.1c-1.741.327-3,1.477-3,2.9h2C51,15.592,51.779,15,53,15ZM54,4h5.131l-.963,1.445a1,1,0,0,0,0,1.11L59.131,8H54Z"/><path d="M37.5,27H54a6,6,0,0,1,0,12H53v2h1a8,8,0,0,0,0-16H37.5a4.5,4.5,0,0,1,0-9H47V14H37.5a6.5,6.5,0,0,0,0,13Z"/><rect x="6" y="25" width="2" height="2"/><rect x="10" y="21" width="2" height="2"/><rect x="14" y="17" width="2" height="2"/><rect x="18" y="13" width="2" height="2"/><rect x="22" y="9" width="2" height="2"/><rect x="28" y="5" width="2" height="2"/><rect x="34" y="5" width="2" height="2"/><rect x="40" y="5" width="2" height="2"/><text x="0" y="79" fill="#000000" font-size="5px" font-weight="bold" font-family="'Helvetica Neue', Helvetica, Arial-Unicode, Arial, Sans-serif">Created by Sumit Saengthong</text><text x="0" y="84" fill="#000000" font-size="5px" font-weight="bold" font-family="'Helvetica Neue', Helvetica, Arial-Unicode, Arial, Sans-serif">from the Noun Project</text></svg>