<svg xmlns="http://www.w3.org/2000/svg" xmlns:xlink="http://www.w3.org/1999/xlink" xml:space="preserve" version="1.1" style="shape-rendering:geometricPrecision;text-rendering:geometricPrecision;image-rendering:optimizeQuality;" viewBox="0 0 847 1058.75" x="0px" y="0px" fill-rule="evenodd" clip-rule="evenodd"><defs><style type="text/css">
   
    .fil0 {fill:black}
   
  </style></defs><g><path class="fil0" d="M764 168l-5 310c-3,196 -180,287 -336,358 -155,-71 -332,-162 -335,-358l-6 -310c158,-19 230,-41 341,-157 112,117 185,138 341,157zm-528 204l136 0 0 -136 103 0 0 136 136 0 0 103 -136 0 0 136 -103 0 0 -136 -136 0 0 -103zm187 -298c-85,84 -179,117 -297,132l5 271c3,166 160,252 292,311 132,-59 290,-145 293,-311l4 -271c-117,-15 -211,-48 -297,-132z"/></g><text x="0" y="862" fill="#000000" font-size="5px" font-weight="bold" font-family="'Helvetica Neue', Helvetica, Arial-Unicode, Arial, Sans-serif">Created by Chrystina Angeline</text><text x="0" y="867" fill="#000000" font-size="5px" font-weight="bold" font-family="'Helvetica Neue', Helvetica, Arial-Unicode, Arial, Sans-serif">from the Noun Project</text></svg>