<svg xmlns="http://www.w3.org/2000/svg" data-name="Layer 1" viewBox="0 0 128 160" x="0px" y="0px"><title>92 Miscellaneous 17 solid</title><ellipse cx="17" cy="88.73" rx="3" ry="2.99"/><path d="M13.79,93.81l0,0A2,2,0,0,0,12,92.71H6a2,2,0,0,0-2,2c0,.07,0,5,0,5H2a2,2,0,1,0,0,4H6a2,2,0,0,0,2-2c0-1,0-4.32,0-5h2.74l1.45,2.88a2,2,0,0,0,2.08,1.07,2,2,0,0,0,1.49-2.86Z"/><ellipse cx="50" cy="52.88" rx="5" ry="4.98"/><ellipse cx="27" cy="64.83" rx="4" ry="3.98"/><path d="M34.82,95.34,28,90.55V80.22l1.16,1.68a2.07,2.07,0,0,0,.83.69l2.19,1a2,2,0,0,0,2.64-1,2,2,0,0,0-1-2.63l-1.68-.75-4.5-6.53A2,2,0,0,0,24,73.79v27.88a2,2,0,0,0,4,0V95.42L31.67,98v4a2,2,0,0,0,4,0V97A2,2,0,0,0,34.82,95.34Z"/><path d="M56.59,73.88l-2.36-.73L49.8,64l0,0a2,2,0,0,0-3.78.89v36.85a2,2,0,0,0,4,0V91.44L53.67,94v8a2,2,0,0,0,4,0V93a2,2,0,0,0-.85-1.63L50,86.57v-13l1,2.11a2,2,0,0,0,1.2,1l3.19,1a2,2,0,1,0,1.18-3.81Z"/><path d="M41,65.83a2,2,0,0,0-2,2v8a2,2,0,0,0,4,0v-8A2,2,0,0,0,41,65.83Z"/><ellipse cx="70" cy="42.92" rx="6" ry="5.98"/><path d="M74.5,65.89l-2-.52L67.79,56l0,0a2,2,0,0,0-3.76.92V73.27a4,4,0,0,0-3,3.84v2a4,4,0,0,0,3,3.84v18.73a2,2,0,0,0,4,0V87.46L71.67,90v12a2,2,0,0,0,4,0V89a2,2,0,0,0-.85-1.63l-6.1-4.29H71a4,4,0,0,0,4-4v-2a4,4,0,0,0-4-4H68V65.29L69.34,68l0,0c.47.89,1.43,1,2.31,1.27a6.54,6.54,0,0,0,2.73.49,2,2,0,0,0,1.53-1.45A2,2,0,0,0,74.5,65.89Z"/><ellipse cx="93" cy="30.97" rx="7" ry="6.97"/><path d="M99.17,59.24c-.06,0-7.24-3.53-7.24-3.53L90,42.52l0-.1a2,2,0,0,0-3.88.07L80,69.38a2,2,0,0,0,0,.43v31.87a2,2,0,0,0,4,0V83.47l3.67,2.58v16a2,2,0,0,0,4,0V85a2,2,0,0,0-.85-1.63L84,78.6V70l3.61-16.17.52,3.47a2,2,0,0,0,1.11,1.5L96,62.09v39.58a2,2,0,0,0,4,0s0-41.1,0-41.17A2,2,0,0,0,99.17,59.24Z"/><path d="M124,93.71V75.78a4,4,0,0,0-4-4h-2V63h2.33a2,2,0,1,0,0-4H118V56.63a2,2,0,0,0-4,0V59h-2.33a2,2,0,1,0,0,4H114V71.8h-2a4,4,0,0,0-4,4V93.71a4,4,0,0,0-4,4v2a4,4,0,0,0,4,4h16a4,4,0,0,0,4-4v-2A4,4,0,0,0,124,93.71Zm-16,6v-2h16v2Z"/><text x="0" y="143" fill="#000000" font-size="5px" font-weight="bold" font-family="'Helvetica Neue', Helvetica, Arial-Unicode, Arial, Sans-serif">Created by WEBTECHOPS LLP</text><text x="0" y="148" fill="#000000" font-size="5px" font-weight="bold" font-family="'Helvetica Neue', Helvetica, Arial-Unicode, Arial, Sans-serif">from the Noun Project</text></svg>