<svg xmlns="http://www.w3.org/2000/svg" xmlns:xlink="http://www.w3.org/1999/xlink" version="1.1" x="0px" y="0px" viewBox="0 0 64 80" style="enable-background:new 0 0 64 64;" xml:space="preserve"><g><path d="M58.341,38.358c-1.292-0.861-2.787-1.432-4.324-1.652l-4.175-0.596l-0.305-1.528c0.258-0.179,0.502-0.375,0.737-0.582   h3.681C56.737,34,59,31.737,59,28.955c0-0.778-0.184-1.559-0.532-2.257l-0.412-0.823C57.365,24.494,57,22.948,57,21.403V20   c0-6.617-5.383-12-12-12c-0.946,0-1.863,0.121-2.746,0.329C37.744,3.667,31.5,1,25,1C11.767,1,1,11.767,1,25s10.767,24,24,24   c0.666,0,1.334-0.038,2-0.093V61h13h1h2.402c0.598,1.181,1.811,2,3.223,2h6.75c1.412,0,2.625-0.819,3.223-2H57c3.309,0,6-2.691,6-6   v-7.936C63,43.558,61.258,40.303,58.341,38.358z M47.976,36.976l-0.218,0.871C47.44,39.114,46.307,40,45,40   s-2.44-0.886-2.758-2.152l-0.218-0.871l0.29-1.45C43.155,35.827,44.057,36,45,36s1.845-0.173,2.686-0.474L47.976,36.976z    M27.034,46.509C26.364,46.83,25.682,47,25,47c-3.232,0-6.163-3.582-8.005-9h15.274c-0.205,0.117-0.414,0.228-0.61,0.358   C28.898,40.199,27.209,43.218,27.034,46.509z M3.025,26h9.987c0.071,3.614,0.524,6.997,1.282,10H5.96   C4.239,33.033,3.189,29.631,3.025,26z M25,3c3.159,0,6.136,3.435,8.019,9H16.995C18.837,6.582,21.768,3,25,3z M33.625,14   c0.115,0.43,0.223,0.87,0.326,1.319C33.339,16.758,33,18.34,33,20v1.403c0,0.876-0.13,1.75-0.358,2.597H31v-2h-3v-3h-6v3h-3v2   h-3.988c0.078-3.606,0.573-7.016,1.378-10H33.625z M21,26v-2h3v-3h2v3h3v2h-3v3h-2v-3H21z M13.012,24H3.025   c0.163-3.631,1.213-7.033,2.934-10h8.334C13.536,17.003,13.083,20.386,13.012,24z M15.012,26H19v2h3v3h6v-3h3v-2h0.882l-0.35,0.699   C31.184,27.396,31,28.177,31,28.955c0,2.115,1.31,3.923,3.16,4.672c-0.163,0.814-0.343,1.607-0.55,2.373H16.39   C15.585,33.016,15.09,29.606,15.012,26z M51,28c0,3.309-2.691,6-6,6s-6-2.691-6-6v-4.046c2.896-0.268,5.604-1.688,7.467-3.932   C49.006,20.258,51,22.4,51,25V28z M39.726,34c0.235,0.207,0.479,0.403,0.737,0.582L40.18,36h-4.487c0.164-0.646,0.296-1.324,0.43-2   H39.726z M55,20v1.403c0,1.853,0.438,3.708,1.267,5.367l0.412,0.822C56.889,28.014,57,28.485,57,28.955   C57,30.634,55.634,32,53.955,32h-2.038C52.602,30.822,53,29.458,53,28v-3c0-3.86-3.141-7-7-7h-0.5l-0.3,0.4   C43.509,20.654,40.817,22,38,22h-1v6c0,1.458,0.398,2.822,1.082,4h-2.038C34.366,32,33,30.634,33,28.955   c0-0.47,0.111-0.941,0.321-1.361l0.412-0.824C34.562,25.112,35,23.256,35,21.403V20c0-5.514,4.486-10,10-10S55,14.486,55,20z    M36.081,12h-0.953c-1.119-3.55-2.662-6.361-4.473-8.257c3.531,0.942,6.797,2.76,9.477,5.299C38.578,9.735,37.203,10.75,36.081,12z    M19.351,3.739C17.51,5.663,15.967,8.513,14.861,12H7.266C10.198,8.012,14.439,5.045,19.351,3.739z M7.266,38h7.595   c1.105,3.487,2.649,6.337,4.49,8.261C14.439,44.955,10.198,41.988,7.266,38z M29,47.064c0-2.837,1.409-5.469,3.769-7.042   c1.045-0.696,2.255-1.158,3.498-1.336l3.982-0.569l0.054,0.215C40.843,40.492,42.774,42,45,42c1.267,0,2.428-0.5,3.302-1.32   l-3.137,10.756C44.665,51.159,44.097,51,43.5,51c-1.307,0-2.481,0.726-3.065,1.895L40.382,53H40c-1.654,0-3,1.346-3,3v2   c0,0.352,0.072,0.686,0.184,1H35V45h-2v14h-4V47.064z M40,59c-0.552,0-1-0.448-1-1v-2c0-0.552,0.448-1,1-1h1.618l0.605-1.211   C42.467,53.303,42.956,53,43.5,53c0.417,0,0.8,0.183,1.067,0.486l-1.421,4.871c-0.062,0.21-0.097,0.425-0.12,0.643H41H40z    M53.375,61h-6.75C45.729,61,45,60.271,45,59.375c0-0.154,0.021-0.307,0.065-0.455l6.012-20.613l2.656,0.38   c0.429,0.061,0.851,0.168,1.267,0.295v20.393C55,60.271,54.271,61,53.375,61z M61,55c0,2.206-1.794,4-4,4v-3.132l1.445,0.964   l1.109-1.664L57,53.465V39.886c0.076,0.047,0.157,0.086,0.231,0.136C59.591,41.596,61,44.228,61,47.064V55z"/><circle cx="48" cy="25" r="1"/><circle cx="42" cy="25" r="1"/><path d="M45,30c-1.103,0-2-0.897-2-2h-2c0,2.206,1.794,4,4,4s4-1.794,4-4h-2C47,29.103,46.103,30,45,30z"/></g><text x="0" y="79" fill="#000000" font-size="5px" font-weight="bold" font-family="'Helvetica Neue', Helvetica, Arial-Unicode, Arial, Sans-serif">Created by Eucalyp</text><text x="0" y="84" fill="#000000" font-size="5px" font-weight="bold" font-family="'Helvetica Neue', Helvetica, Arial-Unicode, Arial, Sans-serif">from the Noun Project</text></svg>