<svg xmlns="http://www.w3.org/2000/svg" xmlns:xlink="http://www.w3.org/1999/xlink" version="1.1" x="0px" y="0px" viewBox="0 0 91 113.75" enable-background="new 0 0 91 91" xml:space="preserve"><g><g><g><path d="M27.782,29.369v9.197c0,1.387,1.125,2.512,2.513,2.512s2.513-1.125,2.513-2.512v-9.197c0-1.205,0.903-2.391,2.399-3.236     c2.029,1.879,4.729,3.037,7.699,3.037c3,0,5.725-1.178,7.762-3.088c1.549,0.85,2.484,2.057,2.484,3.289v9.195     c0,1.387,1.125,2.512,2.514,2.512c1.387,0,2.512-1.125,2.512-2.512v-9.195c0-2.967-1.752-5.693-4.678-7.455     c0.514-1.303,0.805-2.717,0.805-4.199c0-6.316-5.113-11.453-11.398-11.453c-6.279,0-11.39,5.137-11.39,11.453     c0,1.51,0.299,2.949,0.83,4.27C29.492,23.748,27.782,26.447,27.782,29.369z M42.906,11.289c3.516,0,6.373,2.883,6.373,6.428     s-2.857,6.428-6.373,6.428c-3.51,0-6.364-2.883-6.364-6.428S39.396,11.289,42.906,11.289z"/><path d="M88.08,55.346c1.387,0,2.512-1.125,2.512-2.514c0-1.387-1.125-2.512-2.512-2.512H74.07c-1.387,0-2.512,1.125-2.512,2.512     v3.461h-1.473l-8.711-7.666C60.916,48.223,60.326,48,59.715,48H35.342c-1.3,0-2.385,0.992-2.503,2.287l-0.085,0.867     c-0.006,0.059-0.009,0.119-0.011,0.178c-0.026,0.945,0.112,1.908,0.372,2.85l-4.477-6.861c-2.191-4.139-6.917-7.469-11.801-5.875     l-2.116,0.682c-0.035,0.012-0.07,0.023-0.104,0.035c-0.17,0.064-0.312,0.123-0.485,0.207c-0.618,0.301-1.086,0.84-1.296,1.494     c-0.068,0.211-0.096,0.428-0.107,0.646c-3.323-1.084-7.073-0.809-9.72,1.836l-1.54,1.535c-0.131,0.125-0.241,0.25-0.329,0.363     c-0.479,0.537-0.703,1.256-0.616,1.971c0.086,0.715,0.476,1.359,1.069,1.768l21.972,15.125c0.171,0.117,0.356,0.213,0.551,0.285     l34.309,12.73c0.279,0.104,0.574,0.158,0.873,0.158h12.262v1.447c0,1.387,1.125,2.512,2.512,2.512h9.158     c1.387,0,2.512-1.125,2.512-2.512c0-1.389-1.125-2.514-2.512-2.514h-6.645V55.346H88.08z M24.234,49.744     c0.039,0.076,0.083,0.15,0.129,0.221l1.035,1.586l-5.181-2.992c-0.01-0.02-0.015-0.039-0.025-0.059l-1.302-2.395     C20.986,45.793,23.16,47.658,24.234,49.744z M59.748,75.256L26.156,62.791L6.951,49.57c1.728-1.23,4.512-0.551,6.414,0.82     c0.069,0.049,0.142,0.096,0.216,0.139l13.061,7.52l5.136,2.994c0.384,0.223,0.821,0.342,1.265,0.342h7.885     c0.163,0.016,0.327,0.025,0.492,0.029l13.66-0.029c1.387,0,2.512-1.125,2.512-2.514c0-1.387-1.125-2.512-2.512-2.512H41.172     c-0.772-0.129-1.563-0.654-2.207-1.479c-0.436-0.557-0.768-1.199-0.971-1.855h20.773l8.709,7.666     c0.459,0.404,1.049,0.627,1.66,0.627h2.422v13.938H59.748z"/></g></g></g><text x="0" y="106" fill="#000000" font-size="5px" font-weight="bold" font-family="'Helvetica Neue', Helvetica, Arial-Unicode, Arial, Sans-serif">Created by BomSymbols</text><text x="0" y="111" fill="#000000" font-size="5px" font-weight="bold" font-family="'Helvetica Neue', Helvetica, Arial-Unicode, Arial, Sans-serif">from the Noun Project</text></svg>