<svg xmlns="http://www.w3.org/2000/svg" xmlns:xlink="http://www.w3.org/1999/xlink" viewBox="0 0 125 102.5" version="1.1" x="0px" y="0px"><title>life insurance health medical cover medicare assurance</title><desc>Created with Sketch.</desc><g stroke="none" stroke-width="1" fill="none" fill-rule="evenodd"><g transform="translate(-3053.000000, -1271.000000)" fill="#000000" fill-rule="nonzero"><path d="M3120.64663,1341.57428 C3113.02405,1347.01628 3106.42886,1351.46214 3105.87692,1351.83397 C3105.00512,1352.4207 3104,1352.71152 3103,1352.71152 C3102,1352.71152 3100.99488,1352.4207 3100.12308,1351.83397 C3098.96922,1351.06356 3071.87692,1332.80336 3063.47692,1324.43091 C3054.08718,1315.08907 3053,1305.1605 3053,1298.50234 C3053,1283.37989 3065.3641,1271.07887 3080.5641,1271.07887 C3089.80512,1271.07887 3097.98973,1275.62479 3103,1282.58907 C3108.01027,1275.62479 3116.19488,1271.07887 3125.4359,1271.07887 C3136.3219,1271.07887 3145.75332,1277.38831 3150.23,1286.52491 C3165.86757,1289.11805 3177.7913,1302.70599 3177.7913,1319.07887 C3177.7913,1337.30426 3163.01669,1352.07887 3144.7913,1352.07887 C3135.25908,1352.07887 3126.67082,1348.0373 3120.64663,1341.57428 Z M3144.7913,1349.07887 C3161.35984,1349.07887 3174.7913,1335.64741 3174.7913,1319.07887 C3174.7913,1302.51032 3161.35984,1289.07887 3144.7913,1289.07887 C3128.22276,1289.07887 3114.7913,1302.51032 3114.7913,1319.07887 C3114.7913,1335.64741 3128.22276,1349.07887 3144.7913,1349.07887 Z M3157.19821,1324.58419 C3157.19821,1326.79164 3156.407,1328.69987 3154.82454,1330.30892 C3153.24209,1331.91797 3150.94823,1332.94855 3147.94289,1333.40068 L3147.94289,1335.43525 C3147.94289,1336.75721 3146.87123,1337.82887 3145.54928,1337.82887 C3144.22732,1337.82887 3143.15566,1336.75721 3143.15566,1335.43525 L3143.15566,1333.56025 C3141.16097,1333.42727 3139.27269,1333.08818 3137.49077,1332.54296 C3136.38199,1332.20371 3135.39164,1331.81555 3134.51971,1331.37848 C3133.68,1330.95755 3133.31972,1329.95073 3133.70176,1329.09263 C3133.71457,1329.06386 3133.72677,1329.03644 3133.73838,1329.01038 L3135.03561,1326.0966 C3135.34193,1325.40855 3136.14802,1325.09911 3136.83606,1325.40543 C3136.86688,1325.41915 3136.89717,1325.434 3136.92688,1325.44997 C3136.99602,1325.48712 3137.06072,1325.52094 3137.12097,1325.55141 C3138.00258,1325.99732 3138.96361,1326.3797 3140.00406,1326.69855 C3141.65301,1327.20387 3143.27533,1327.45653 3144.87108,1327.45653 C3147.90301,1327.45653 3149.41896,1326.69856 3149.41896,1325.18259 C3149.41896,1324.38471 3148.98678,1323.79297 3148.12241,1323.40732 C3147.25805,1323.02168 3145.86843,1322.6161 3143.95353,1322.19057 C3141.85246,1321.73844 3140.09716,1321.25307 3138.68757,1320.73445 C3137.27799,1320.21583 3136.0679,1319.38472 3135.05726,1318.2411 C3134.04661,1317.09748 3133.5413,1315.55494 3133.5413,1313.61344 C3133.5413,1311.3262 3134.36576,1309.36478 3136.0147,1307.72913 C3137.66365,1306.09349 3140.04394,1305.08951 3143.15566,1304.71717 L3143.15566,1302.72248 C3143.15566,1301.40053 3144.22732,1300.32887 3145.54928,1300.32887 C3146.87123,1300.32887 3147.94289,1301.40053 3147.94289,1302.72248 L3147.94289,1304.63738 C3149.45886,1304.77036 3150.91496,1305.03631 3152.31124,1305.43525 C3153.29532,1305.71641 3154.20342,1306.05702 3155.03556,1306.45708 C3155.10506,1306.49049 3155.18375,1306.52983 3155.27165,1306.57509 C3155.71037,1306.80104 3155.90244,1307.32572 3155.7133,1307.78152 L3153.90249,1312.14527 C3153.75263,1312.50642 3153.33837,1312.6777 3152.97722,1312.52783 C3152.96129,1312.52122 3152.9456,1312.51403 3152.93019,1312.50627 C3152.79752,1312.43946 3152.68446,1312.38389 3152.59102,1312.33955 C3150.28947,1311.24732 3148.04862,1310.70121 3145.86843,1310.70121 C3144.29927,1310.70121 3143.15566,1310.93392 3142.43757,1311.39935 C3141.71949,1311.86477 3141.36045,1312.46982 3141.36045,1313.21451 C3141.36045,1313.95919 3141.78597,1314.5177 3142.63704,1314.89004 C3143.48811,1315.26238 3144.85778,1315.64801 3146.74608,1316.04695 C3148.87376,1316.49908 3150.63571,1316.98445 3152.03199,1317.50307 C3153.42827,1318.02169 3154.63837,1318.84615 3155.66231,1319.97647 C3156.68625,1321.1068 3157.19821,1322.64269 3157.19821,1324.58419 Z"/></g></g><text x="0" y="97" fill="#000000" font-size="5px" font-weight="bold" font-family="'Helvetica Neue', Helvetica, Arial-Unicode, Arial, Sans-serif">Created by Silviu Ojog</text><text x="0" y="102" fill="#000000" font-size="5px" font-weight="bold" font-family="'Helvetica Neue', Helvetica, Arial-Unicode, Arial, Sans-serif">from the Noun Project</text></svg>