<svg xmlns="http://www.w3.org/2000/svg" xmlns:xlink="http://www.w3.org/1999/xlink" version="1.1" x="0px" y="0px" viewBox="0 0 64 80" style="enable-background:new 0 0 64 64;" xml:space="preserve"><g><path d="M53,14c-0.551,0-1-0.448-1-1h-2c0,1.302,0.839,2.402,2,2.816V17h2v-1.184c1.161-0.414,2-1.514,2-2.816c0-1.654-1.346-3-3-3   c-0.551,0-1-0.448-1-1s0.449-1,1-1s1,0.448,1,1h2c0-1.302-0.839-2.402-2-2.816V5h-2v1.184C50.839,6.598,50,7.698,50,9   c0,1.654,1.346,3,3,3c0.551,0,1,0.448,1,1S53.551,14,53,14z"/><path d="M53,21c5.514,0,10-4.486,10-10S58.514,1,53,1S43,5.486,43,11S47.486,21,53,21z M53,3c4.411,0,8,3.589,8,8s-3.589,8-8,8   s-8-3.589-8-8S48.589,3,53,3z"/><polygon points="61,21 59,21 59,33 57,33 57,23 55,23 55,33 53,33 53,26 51,26 51,33 49,33 49,29 47,29 47,33 45,33 45,31 43,31    43,33 41,33 41,35 63,35 63,33 61,33  "/><path d="M50.871,49.755l-3.259-0.652l-7.885-12.266C38.987,35.687,37.729,35,36.362,35H34v-2h3v-1c0-2.757-2.243-5-5-5h-4.341   l-1.069-2.494c-1.104-2.577-2.647-4.901-4.59-6.915V16.46c1.224-1.099,2-2.688,2-4.46v-2c0-3.309-2.691-6-6-6s-6,2.691-6,6v2   c0,1.771,0.776,3.36,2,4.46v2.263l-1.784,2.974l-3.281-8.053C8.969,13.433,9,13.221,9,13c0-2.206-1.794-4-4-4s-4,1.794-4,4   c0,1.527,0.87,2.841,2.131,3.515l11.79,28.492l-3.112,7.779c-0.727-0.21-1.456-0.41-2.179-0.636l0-0.001   C9.312,52.05,8.984,52,8.653,52H8.272C6.468,52,5,53.468,5,55.272c0,1.466,0.986,2.763,2.397,3.153l2.208,0.613   C19.066,61.667,28.843,63,38.663,63H48c1.654,0,3-1.346,3-3s-1.346-3-3-3h-6.584c-2.479,0-4.951-0.096-7.416-0.268V46h3.903   l4.953,8.049C43.222,54.645,43.859,55,44.559,55h5.793C51.812,55,53,53.812,53,52.352C53,51.093,52.104,50,50.871,49.755z    M34.829,31H20.659l-2.552-5.956C18.036,24.879,18,24.703,18,24.522v-0.198C18,23.594,18.594,23,19.325,23   c0.571,0,1.076,0.364,1.256,0.906L22.279,29H32C33.304,29,34.416,29.836,34.829,31z M18.604,54.514L21.701,46H28v10.136   C24.846,55.736,21.712,55.196,18.604,54.514z M16.668,44L5.476,16.952c0.856-0.103,1.627-0.467,2.229-1.024L18.328,42H28v2H16.668z    M14,10c0-2.206,1.794-4,4-4s4,1.794,4,4v2c0,2.206-1.794,4-4,4s-4-1.794-4-4V10z M16,19.277V17.65c0.627,0.223,1.298,0.35,2,0.35   s1.373-0.128,2-0.35v0.764l0.293,0.293c1.9,1.9,3.4,4.116,4.459,6.586L25.484,27h-1.763l-1.242-3.727   C22.025,21.914,20.758,21,19.325,21C17.492,21,16,22.491,16,24.324v0.198c0,0.453,0.09,0.895,0.269,1.31L19.341,33H28v7h-8.328   l-6.513-15.988L16,19.277z M5,11c1.103,0,2,0.897,2,2s-0.897,2-2,2s-2-0.897-2-2S3.897,11,5,11z M16.677,46h2.895l-2.934,8.068   c-0.968-0.232-1.935-0.469-2.897-0.728L16.677,46z M48,59c0.551,0,1,0.448,1,1s-0.449,1-1,1h-9.337   c-9.639,0-19.235-1.309-28.522-3.889l-2.208-0.613C7.383,56.347,7,55.842,7,55.272C7,54.571,7.571,54,8.272,54h0.381   c0.128,0,0.256,0.02,0.379,0.058C19.528,57.337,30.423,59,41.416,59H48z M30,56.377V33h2v23.567   C31.333,56.508,30.666,56.449,30,56.377z M34,44v-2h1.441l1.231,2H34z M50.352,53h-5.793l-8-13H34v-3h2.362   c0.683,0,1.312,0.344,1.682,0.919l8.344,12.979l4.091,0.818C50.781,51.776,51,52.043,51,52.352C51,52.709,50.709,53,50.352,53z"/></g><text x="0" y="79" fill="#000000" font-size="5px" font-weight="bold" font-family="'Helvetica Neue', Helvetica, Arial-Unicode, Arial, Sans-serif">Created by Eucalyp</text><text x="0" y="84" fill="#000000" font-size="5px" font-weight="bold" font-family="'Helvetica Neue', Helvetica, Arial-Unicode, Arial, Sans-serif">from the Noun Project</text></svg>